<svg xmlns="http://www.w3.org/2000/svg" xmlns:xlink="http://www.w3.org/1999/xlink" width="500" zoomAndPan="magnify" viewBox="0 0 375 374.999991" height="500" preserveAspectRatio="xMidYMid meet" version="1.0"><defs><clipPath id="efe10fc5c9"><path d="M 17.8125 17.8125 L 356.8125 17.8125 L 356.8125 356.8125 L 17.8125 356.8125 Z M 17.8125 17.8125 " clip-rule="nonzero"/></clipPath><clipPath id="bb57c21ffc"><path d="M 60.222656 60.222656 L 314.472656 60.222656 L 314.472656 314.472656 L 60.222656 314.472656 Z M 60.222656 60.222656 " clip-rule="nonzero"/></clipPath></defs><g clip-path="url(#efe10fc5c9)"><path fill="#269fe6" d="M 187.523438 349.183594 C 98.335938 349.183594 25.777344 276.621094 25.777344 187.433594 C 25.777344 98.242188 98.335938 25.6875 187.523438 25.6875 C 276.710938 25.6875 349.277344 98.242188 349.277344 187.433594 C 349.277344 276.621094 276.710938 349.183594 187.523438 349.183594 Z M 187.523438 17.773438 C 93.976562 17.773438 17.867188 93.886719 17.867188 187.433594 C 17.867188 280.984375 93.976562 357.09375 187.523438 357.09375 C 281.074219 357.09375 357.179688 280.984375 357.179688 187.433594 C 357.179688 93.886719 281.074219 17.773438 187.523438 17.773438 " fill-opacity="1" fill-rule="nonzero"/></g><path fill="#269fe6" d="M 187.523438 23.429688 C 97.09375 23.429688 23.527344 97.003906 23.527344 187.433594 C 23.527344 277.863281 97.09375 351.4375 187.523438 351.4375 C 277.957031 351.4375 351.53125 277.863281 351.53125 187.433594 C 351.53125 97.003906 277.957031 23.429688 187.523438 23.429688 Z M 187.523438 354.839844 C 95.222656 354.839844 20.121094 279.738281 20.121094 187.433594 C 20.121094 95.125 95.222656 20.03125 187.523438 20.03125 C 279.832031 20.03125 354.929688 95.125 354.929688 187.433594 C 354.929688 279.738281 279.832031 354.839844 187.523438 354.839844 " fill-opacity="1" fill-rule="nonzero"/><g clip-path="url(#bb57c21ffc)"><path fill="#269fe6" d="M 187.519531 308.78125 C 120.621094 308.78125 66.191406 254.351562 66.191406 187.449219 C 66.191406 120.550781 120.621094 66.128906 187.519531 66.128906 C 254.417969 66.128906 308.847656 120.550781 308.847656 187.449219 C 308.847656 254.351562 254.417969 308.78125 187.519531 308.78125 Z M 187.519531 60.191406 C 117.351562 60.191406 60.261719 117.28125 60.261719 187.449219 C 60.261719 257.621094 117.351562 314.714844 187.519531 314.714844 C 257.691406 314.714844 314.777344 257.621094 314.777344 187.449219 C 314.777344 117.28125 257.691406 60.191406 187.519531 60.191406 " fill-opacity="1" fill-rule="nonzero"/></g><path fill="#269fe6" d="M 187.519531 64.433594 C 119.691406 64.433594 64.503906 119.621094 64.503906 187.449219 C 64.503906 255.285156 119.691406 310.472656 187.519531 310.472656 C 255.351562 310.472656 310.539062 255.285156 310.539062 187.449219 C 310.539062 119.621094 255.351562 64.433594 187.519531 64.433594 Z M 187.519531 313.023438 C 118.285156 313.023438 61.953125 256.691406 61.953125 187.449219 C 61.953125 118.210938 118.285156 61.882812 187.519531 61.882812 C 256.757812 61.882812 313.089844 118.210938 313.089844 187.449219 C 313.089844 256.691406 256.757812 313.023438 187.519531 313.023438 " fill-opacity="1" fill-rule="nonzero"/></svg>