<svg xmlns="http://www.w3.org/2000/svg" xmlns:xlink="http://www.w3.org/1999/xlink" width="500" zoomAndPan="magnify" viewBox="0 0 375 374.999991" height="500" preserveAspectRatio="xMidYMid meet" version="1.0"><defs><g/><clipPath id="395904ed07"><path d="M 7.585938 135.585938 L 111.085938 135.585938 L 111.085938 239.085938 L 7.585938 239.085938 Z M 7.585938 135.585938 " clip-rule="nonzero"/></clipPath><clipPath id="7ae34e1732"><path d="M 59.5 232.796875 C 34.480469 232.796875 14.199219 212.515625 14.199219 187.496094 C 14.199219 162.480469 34.480469 142.199219 59.5 142.199219 C 84.515625 142.199219 104.796875 162.480469 104.796875 187.496094 C 104.796875 212.515625 84.515625 232.796875 59.5 232.796875 Z M 59.5 135.585938 C 30.828125 135.585938 7.585938 158.828125 7.585938 187.496094 C 7.585938 216.167969 30.828125 239.410156 59.5 239.410156 C 88.167969 239.410156 111.410156 216.167969 111.410156 187.496094 C 111.410156 158.828125 88.167969 135.585938 59.5 135.585938 Z M 59.5 135.585938 " clip-rule="nonzero"/></clipPath><linearGradient x1="516.385168" gradientTransform="matrix(0.169829, 0, 0, 0.169829, 7.58764, 135.586317)" y1="664.13531" x2="93.63273" gradientUnits="userSpaceOnUse" y2="-55.040117" id="ee54c6c74c"><stop stop-opacity="1" stop-color="rgb(33.555603%, 85.10437%, 90.19928%)" offset="0"/><stop stop-opacity="1" stop-color="rgb(33.435059%, 84.957886%, 90.19928%)" offset="0.015625"/><stop stop-opacity="1" stop-color="rgb(33.195496%, 84.666443%, 90.19928%)" offset="0.03125"/><stop stop-opacity="1" stop-color="rgb(32.955933%, 84.375%, 90.19928%)" offset="0.046875"/><stop stop-opacity="1" stop-color="rgb(32.71637%, 84.083557%, 90.19928%)" offset="0.0625"/><stop stop-opacity="1" stop-color="rgb(32.476807%, 83.792114%, 90.19928%)" offset="0.078125"/><stop stop-opacity="1" stop-color="rgb(32.237244%, 83.500671%, 90.19928%)" offset="0.09375"/><stop stop-opacity="1" stop-color="rgb(31.997681%, 83.209229%, 90.19928%)" offset="0.109375"/><stop stop-opacity="1" stop-color="rgb(31.758118%, 82.917786%, 90.19928%)" offset="0.125"/><stop stop-opacity="1" stop-color="rgb(31.520081%, 82.626343%, 90.19928%)" offset="0.140625"/><stop stop-opacity="1" stop-color="rgb(31.280518%, 82.3349%, 90.19928%)" offset="0.15625"/><stop stop-opacity="1" stop-color="rgb(31.040955%, 82.043457%, 90.19928%)" offset="0.171875"/><stop stop-opacity="1" stop-color="rgb(30.801392%, 81.750488%, 90.19928%)" offset="0.1875"/><stop stop-opacity="1" stop-color="rgb(30.561829%, 81.459045%, 90.19928%)" offset="0.203125"/><stop stop-opacity="1" stop-color="rgb(30.322266%, 81.167603%, 90.19928%)" offset="0.21875"/><stop stop-opacity="1" stop-color="rgb(30.082703%, 80.87616%, 90.19928%)" offset="0.234375"/><stop stop-opacity="1" stop-color="rgb(29.84314%, 80.584717%, 90.19928%)" offset="0.25"/><stop stop-opacity="1" stop-color="rgb(29.603577%, 80.293274%, 90.19928%)" offset="0.265625"/><stop stop-opacity="1" stop-color="rgb(29.364014%, 80.001831%, 90.19928%)" offset="0.28125"/><stop stop-opacity="1" stop-color="rgb(29.124451%, 79.710388%, 90.19928%)" offset="0.296875"/><stop stop-opacity="1" stop-color="rgb(28.884888%, 79.418945%, 90.19928%)" offset="0.3125"/><stop stop-opacity="1" stop-color="rgb(28.645325%, 79.127502%, 90.19928%)" offset="0.328125"/><stop stop-opacity="1" stop-color="rgb(28.405762%, 78.83606%, 90.19928%)" offset="0.34375"/><stop stop-opacity="1" stop-color="rgb(28.166199%, 78.544617%, 90.19928%)" offset="0.359375"/><stop stop-opacity="1" stop-color="rgb(27.926636%, 78.253174%, 90.19928%)" offset="0.370209"/><stop stop-opacity="1" stop-color="rgb(27.807617%, 78.108215%, 90.19928%)" offset="0.375"/><stop stop-opacity="1" stop-color="rgb(27.687073%, 77.961731%, 90.19928%)" offset="0.390625"/><stop stop-opacity="1" stop-color="rgb(27.44751%, 77.670288%, 90.19928%)" offset="0.40625"/><stop stop-opacity="1" stop-color="rgb(27.207947%, 77.378845%, 90.19928%)" offset="0.421875"/><stop stop-opacity="1" stop-color="rgb(26.968384%, 77.087402%, 90.19928%)" offset="0.4375"/><stop stop-opacity="1" stop-color="rgb(26.728821%, 76.795959%, 90.19928%)" offset="0.453125"/><stop stop-opacity="1" stop-color="rgb(26.489258%, 76.502991%, 90.19928%)" offset="0.46875"/><stop stop-opacity="1" stop-color="rgb(26.249695%, 76.211548%, 90.19928%)" offset="0.484375"/><stop stop-opacity="1" stop-color="rgb(26.010132%, 75.920105%, 90.19928%)" offset="0.5"/><stop stop-opacity="1" stop-color="rgb(25.770569%, 75.628662%, 90.19928%)" offset="0.515625"/><stop stop-opacity="1" stop-color="rgb(25.531006%, 75.337219%, 90.19928%)" offset="0.53125"/><stop stop-opacity="1" stop-color="rgb(25.291443%, 75.045776%, 90.19928%)" offset="0.546875"/><stop stop-opacity="1" stop-color="rgb(25.05188%, 74.754333%, 90.19928%)" offset="0.5625"/><stop stop-opacity="1" stop-color="rgb(24.812317%, 74.462891%, 90.19928%)" offset="0.578125"/><stop stop-opacity="1" stop-color="rgb(24.572754%, 74.171448%, 90.19928%)" offset="0.59375"/><stop stop-opacity="1" stop-color="rgb(24.333191%, 73.880005%, 90.19928%)" offset="0.609375"/><stop stop-opacity="1" stop-color="rgb(24.093628%, 73.588562%, 90.19928%)" offset="0.625"/><stop stop-opacity="1" stop-color="rgb(23.854065%, 73.297119%, 90.19928%)" offset="0.629791"/><stop stop-opacity="1" stop-color="rgb(23.735046%, 73.152161%, 90.19928%)" offset="0.640625"/><stop stop-opacity="1" stop-color="rgb(23.614502%, 73.005676%, 90.19928%)" offset="0.65625"/><stop stop-opacity="1" stop-color="rgb(23.374939%, 72.714233%, 90.19928%)" offset="0.671875"/><stop stop-opacity="1" stop-color="rgb(23.135376%, 72.422791%, 90.19928%)" offset="0.6875"/><stop stop-opacity="1" stop-color="rgb(22.895813%, 72.131348%, 90.19928%)" offset="0.703125"/><stop stop-opacity="1" stop-color="rgb(22.65625%, 71.839905%, 90.19928%)" offset="0.71875"/><stop stop-opacity="1" stop-color="rgb(22.416687%, 71.548462%, 90.19928%)" offset="0.734375"/><stop stop-opacity="1" stop-color="rgb(22.177124%, 71.257019%, 90.19928%)" offset="0.75"/><stop stop-opacity="1" stop-color="rgb(21.937561%, 70.96405%, 90.19928%)" offset="0.765625"/><stop stop-opacity="1" stop-color="rgb(21.697998%, 70.672607%, 90.19928%)" offset="0.78125"/><stop stop-opacity="1" stop-color="rgb(21.458435%, 70.381165%, 90.19928%)" offset="0.796875"/><stop stop-opacity="1" stop-color="rgb(21.218872%, 70.089722%, 90.19928%)" offset="0.8125"/><stop stop-opacity="1" stop-color="rgb(20.979309%, 69.798279%, 90.19928%)" offset="0.828125"/><stop stop-opacity="1" stop-color="rgb(20.739746%, 69.506836%, 90.19928%)" offset="0.84375"/><stop stop-opacity="1" stop-color="rgb(20.500183%, 69.215393%, 90.19928%)" offset="0.859375"/><stop stop-opacity="1" stop-color="rgb(20.26062%, 68.92395%, 90.19928%)" offset="0.875"/><stop stop-opacity="1" stop-color="rgb(20.021057%, 68.632507%, 90.19928%)" offset="0.890625"/><stop stop-opacity="1" stop-color="rgb(19.781494%, 68.341064%, 90.19928%)" offset="0.90625"/><stop stop-opacity="1" stop-color="rgb(19.541931%, 68.049622%, 90.19928%)" offset="0.921875"/><stop stop-opacity="1" stop-color="rgb(19.302368%, 67.758179%, 90.19928%)" offset="0.9375"/><stop stop-opacity="1" stop-color="rgb(19.062805%, 67.466736%, 90.19928%)" offset="0.953125"/><stop stop-opacity="1" stop-color="rgb(18.823242%, 67.175293%, 90.19928%)" offset="0.96875"/><stop stop-opacity="1" stop-color="rgb(18.583679%, 66.88385%, 90.19928%)" offset="0.984375"/><stop stop-opacity="1" stop-color="rgb(18.344116%, 66.592407%, 90.19928%)" offset="1"/></linearGradient><clipPath id="029288a2ed"><path d="M 23.417969 151.417969 L 95.417969 151.417969 L 95.417969 223.417969 L 23.417969 223.417969 Z M 23.417969 151.417969 " clip-rule="nonzero"/></clipPath><clipPath id="e4941e1f32"><path d="M 59.496094 218.980469 C 42.109375 218.980469 28.015625 204.882812 28.015625 187.496094 C 28.015625 170.109375 42.109375 156.015625 59.496094 156.015625 C 76.886719 156.015625 90.980469 170.109375 90.980469 187.496094 C 90.980469 204.882812 76.886719 218.980469 59.496094 218.980469 Z M 59.496094 151.417969 C 39.574219 151.417969 23.417969 167.570312 23.417969 187.496094 C 23.417969 207.421875 39.574219 223.574219 59.496094 223.574219 C 79.421875 223.574219 95.574219 207.421875 95.574219 187.496094 C 95.574219 167.570312 79.421875 151.417969 59.496094 151.417969 Z M 59.496094 151.417969 " clip-rule="nonzero"/></clipPath><linearGradient x1="516.78223" gradientTransform="matrix(0.118031, 0, 0, 0.118031, 23.419628, 151.418306)" y1="664.810782" x2="93.632715" gradientUnits="userSpaceOnUse" y2="-55.040143" id="b3de9ed1a4"><stop stop-opacity="1" stop-color="rgb(33.570862%, 85.122681%, 90.19928%)" offset="0"/><stop stop-opacity="1" stop-color="rgb(33.450317%, 84.976196%, 90.19928%)" offset="0.015625"/><stop stop-opacity="1" stop-color="rgb(33.210754%, 84.683228%, 90.19928%)" offset="0.03125"/><stop stop-opacity="1" stop-color="rgb(32.971191%, 84.391785%, 90.19928%)" offset="0.046875"/><stop stop-opacity="1" stop-color="rgb(32.730103%, 84.100342%, 90.19928%)" offset="0.0625"/><stop stop-opacity="1" stop-color="rgb(32.49054%, 83.808899%, 90.19928%)" offset="0.078125"/><stop stop-opacity="1" stop-color="rgb(32.250977%, 83.51593%, 90.19928%)" offset="0.09375"/><stop stop-opacity="1" stop-color="rgb(32.011414%, 83.224487%, 90.19928%)" offset="0.109375"/><stop stop-opacity="1" stop-color="rgb(31.771851%, 82.933044%, 90.19928%)" offset="0.125"/><stop stop-opacity="1" stop-color="rgb(31.532288%, 82.641602%, 90.19928%)" offset="0.140625"/><stop stop-opacity="1" stop-color="rgb(31.292725%, 82.348633%, 90.19928%)" offset="0.15625"/><stop stop-opacity="1" stop-color="rgb(31.051636%, 82.05719%, 90.19928%)" offset="0.171875"/><stop stop-opacity="1" stop-color="rgb(30.812073%, 81.765747%, 90.19928%)" offset="0.1875"/><stop stop-opacity="1" stop-color="rgb(30.57251%, 81.474304%, 90.19928%)" offset="0.203125"/><stop stop-opacity="1" stop-color="rgb(30.332947%, 81.182861%, 90.19928%)" offset="0.21875"/><stop stop-opacity="1" stop-color="rgb(30.093384%, 80.889893%, 90.19928%)" offset="0.234375"/><stop stop-opacity="1" stop-color="rgb(29.853821%, 80.59845%, 90.19928%)" offset="0.25"/><stop stop-opacity="1" stop-color="rgb(29.614258%, 80.307007%, 90.19928%)" offset="0.265625"/><stop stop-opacity="1" stop-color="rgb(29.374695%, 80.015564%, 90.19928%)" offset="0.28125"/><stop stop-opacity="1" stop-color="rgb(29.133606%, 79.722595%, 90.19928%)" offset="0.296875"/><stop stop-opacity="1" stop-color="rgb(28.894043%, 79.431152%, 90.19928%)" offset="0.3125"/><stop stop-opacity="1" stop-color="rgb(28.65448%, 79.139709%, 90.19928%)" offset="0.328125"/><stop stop-opacity="1" stop-color="rgb(28.414917%, 78.848267%, 90.19928%)" offset="0.34375"/><stop stop-opacity="1" stop-color="rgb(28.175354%, 78.555298%, 90.19928%)" offset="0.359375"/><stop stop-opacity="1" stop-color="rgb(27.935791%, 78.263855%, 90.19928%)" offset="0.370209"/><stop stop-opacity="1" stop-color="rgb(27.816772%, 78.118896%, 90.19928%)" offset="0.375"/><stop stop-opacity="1" stop-color="rgb(27.696228%, 77.972412%, 90.19928%)" offset="0.390625"/><stop stop-opacity="1" stop-color="rgb(27.455139%, 77.680969%, 90.19928%)" offset="0.40625"/><stop stop-opacity="1" stop-color="rgb(27.215576%, 77.388%, 90.19928%)" offset="0.421875"/><stop stop-opacity="1" stop-color="rgb(26.976013%, 77.096558%, 90.19928%)" offset="0.4375"/><stop stop-opacity="1" stop-color="rgb(26.73645%, 76.805115%, 90.19928%)" offset="0.453125"/><stop stop-opacity="1" stop-color="rgb(26.496887%, 76.513672%, 90.19928%)" offset="0.46875"/><stop stop-opacity="1" stop-color="rgb(26.257324%, 76.222229%, 90.19928%)" offset="0.484375"/><stop stop-opacity="1" stop-color="rgb(26.017761%, 75.92926%, 90.19928%)" offset="0.5"/><stop stop-opacity="1" stop-color="rgb(25.776672%, 75.637817%, 90.19928%)" offset="0.515625"/><stop stop-opacity="1" stop-color="rgb(25.537109%, 75.346375%, 90.19928%)" offset="0.53125"/><stop stop-opacity="1" stop-color="rgb(25.297546%, 75.054932%, 90.19928%)" offset="0.546875"/><stop stop-opacity="1" stop-color="rgb(25.057983%, 74.761963%, 90.19928%)" offset="0.5625"/><stop stop-opacity="1" stop-color="rgb(24.81842%, 74.47052%, 90.19928%)" offset="0.578125"/><stop stop-opacity="1" stop-color="rgb(24.578857%, 74.179077%, 90.19928%)" offset="0.59375"/><stop stop-opacity="1" stop-color="rgb(24.339294%, 73.887634%, 90.19928%)" offset="0.609375"/><stop stop-opacity="1" stop-color="rgb(24.098206%, 73.594666%, 90.19928%)" offset="0.625"/><stop stop-opacity="1" stop-color="rgb(23.858643%, 73.303223%, 90.19928%)" offset="0.629791"/><stop stop-opacity="1" stop-color="rgb(23.739624%, 73.158264%, 90.19928%)" offset="0.640625"/><stop stop-opacity="1" stop-color="rgb(23.61908%, 73.01178%, 90.19928%)" offset="0.65625"/><stop stop-opacity="1" stop-color="rgb(23.379517%, 72.720337%, 90.19928%)" offset="0.671875"/><stop stop-opacity="1" stop-color="rgb(23.139954%, 72.428894%, 90.19928%)" offset="0.6875"/><stop stop-opacity="1" stop-color="rgb(22.900391%, 72.135925%, 90.19928%)" offset="0.703125"/><stop stop-opacity="1" stop-color="rgb(22.660828%, 71.844482%, 90.19928%)" offset="0.71875"/><stop stop-opacity="1" stop-color="rgb(22.421265%, 71.55304%, 90.19928%)" offset="0.734375"/><stop stop-opacity="1" stop-color="rgb(22.180176%, 71.261597%, 90.19928%)" offset="0.75"/><stop stop-opacity="1" stop-color="rgb(21.940613%, 70.968628%, 90.19928%)" offset="0.765625"/><stop stop-opacity="1" stop-color="rgb(21.70105%, 70.677185%, 90.19928%)" offset="0.78125"/><stop stop-opacity="1" stop-color="rgb(21.461487%, 70.385742%, 90.19928%)" offset="0.796875"/><stop stop-opacity="1" stop-color="rgb(21.221924%, 70.094299%, 90.19928%)" offset="0.8125"/><stop stop-opacity="1" stop-color="rgb(20.982361%, 69.801331%, 90.19928%)" offset="0.828125"/><stop stop-opacity="1" stop-color="rgb(20.742798%, 69.509888%, 90.19928%)" offset="0.84375"/><stop stop-opacity="1" stop-color="rgb(20.501709%, 69.218445%, 90.19928%)" offset="0.859375"/><stop stop-opacity="1" stop-color="rgb(20.262146%, 68.927002%, 90.19928%)" offset="0.875"/><stop stop-opacity="1" stop-color="rgb(20.022583%, 68.634033%, 90.19928%)" offset="0.890625"/><stop stop-opacity="1" stop-color="rgb(19.78302%, 68.34259%, 90.19928%)" offset="0.90625"/><stop stop-opacity="1" stop-color="rgb(19.543457%, 68.051147%, 90.19928%)" offset="0.921875"/><stop stop-opacity="1" stop-color="rgb(19.303894%, 67.759705%, 90.19928%)" offset="0.9375"/><stop stop-opacity="1" stop-color="rgb(19.064331%, 67.468262%, 90.19928%)" offset="0.953125"/><stop stop-opacity="1" stop-color="rgb(18.823242%, 67.175293%, 90.19928%)" offset="0.96875"/><stop stop-opacity="1" stop-color="rgb(18.583679%, 66.88385%, 90.19928%)" offset="0.984375"/><stop stop-opacity="1" stop-color="rgb(18.344116%, 66.592407%, 90.19928%)" offset="1"/></linearGradient></defs><g clip-path="url(#395904ed07)"><g clip-path="url(#7ae34e1732)"><path fill="url(#ee54c6c74c)" d="M 7.585938 135.585938 L 7.585938 239.085938 L 111.085938 239.085938 L 111.085938 135.585938 Z M 7.585938 135.585938 " fill-rule="nonzero"/></g></g><g clip-path="url(#029288a2ed)"><g clip-path="url(#e4941e1f32)"><path fill="url(#b3de9ed1a4)" d="M 23.417969 151.417969 L 23.417969 223.417969 L 95.417969 223.417969 L 95.417969 151.417969 Z M 23.417969 151.417969 " fill-rule="nonzero"/></g></g><g fill="#f0ffff" fill-opacity="1"><g transform="translate(118.928507, 203.624987)"><g><path d="M 10.1875 -35.546875 L 21.796875 -6.546875 L 33.421875 -35.546875 L 39.5 -35.546875 L 39.5 0 L 34.8125 0 L 34.8125 -13.84375 L 35.25 -28.78125 L 23.578125 0 L 20 0 L 8.34375 -28.71875 L 8.8125 -13.84375 L 8.8125 0 L 4.125 0 L 4.125 -35.546875 Z M 10.1875 -35.546875 "/></g></g></g><g fill="#f0ffff" fill-opacity="1"><g transform="translate(162.574027, 203.624987)"><g><path d="M 12.0625 -6.609375 L 18.21875 -26.421875 L 23.046875 -26.421875 L 12.421875 4.078125 C 10.785156 8.472656 8.175781 10.671875 4.59375 10.671875 L 3.734375 10.59375 L 2.046875 10.28125 L 2.046875 6.609375 L 3.265625 6.71875 C 4.796875 6.71875 5.988281 6.40625 6.84375 5.78125 C 7.695312 5.164062 8.398438 4.035156 8.953125 2.390625 L 9.96875 -0.296875 L 0.53125 -26.421875 L 5.46875 -26.421875 Z M 12.0625 -6.609375 "/></g></g></g><g fill="#f0ffff" fill-opacity="1"><g transform="translate(186.227556, 203.624987)"><g><path d="M 17.15625 -14.375 L 8.8125 -14.375 L 8.8125 0 L 4.109375 0 L 4.109375 -35.546875 L 15.875 -35.546875 C 19.875 -35.546875 22.953125 -34.632812 25.109375 -32.8125 C 27.265625 -30.988281 28.34375 -28.335938 28.34375 -24.859375 C 28.34375 -22.640625 27.742188 -20.707031 26.546875 -19.0625 C 25.347656 -17.425781 23.6875 -16.195312 21.5625 -15.375 L 29.90625 -0.296875 L 29.90625 0 L 24.875 0 Z M 8.8125 -18.21875 L 16.015625 -18.21875 C 18.335938 -18.21875 20.1875 -18.816406 21.5625 -20.015625 C 22.945312 -21.222656 23.640625 -22.835938 23.640625 -24.859375 C 23.640625 -27.054688 22.984375 -28.738281 21.671875 -29.90625 C 20.359375 -31.082031 18.460938 -31.675781 15.984375 -31.6875 L 8.8125 -31.6875 Z M 8.8125 -18.21875 "/></g></g></g><g fill="#f0ffff" fill-opacity="1"><g transform="translate(217.008876, 203.624987)"><g><path d="M 14.375 0.484375 C 10.800781 0.484375 7.890625 -0.6875 5.640625 -3.03125 C 3.390625 -5.382812 2.265625 -8.53125 2.265625 -12.46875 L 2.265625 -13.3125 C 2.265625 -15.925781 2.765625 -18.257812 3.765625 -20.3125 C 4.773438 -22.375 6.175781 -23.988281 7.96875 -25.15625 C 9.769531 -26.320312 11.71875 -26.90625 13.8125 -26.90625 C 17.25 -26.90625 19.921875 -25.773438 21.828125 -23.515625 C 23.734375 -21.253906 24.6875 -18.015625 24.6875 -13.796875 L 24.6875 -11.921875 L 6.78125 -11.921875 C 6.851562 -9.316406 7.613281 -7.210938 9.0625 -5.609375 C 10.519531 -4.003906 12.375 -3.203125 14.625 -3.203125 C 16.21875 -3.203125 17.566406 -3.523438 18.671875 -4.171875 C 19.785156 -4.828125 20.753906 -5.691406 21.578125 -6.765625 L 24.34375 -4.609375 C 22.125 -1.210938 18.800781 0.484375 14.375 0.484375 Z M 13.8125 -23.1875 C 11.988281 -23.1875 10.457031 -22.523438 9.21875 -21.203125 C 7.988281 -19.878906 7.226562 -18.019531 6.9375 -15.625 L 20.171875 -15.625 L 20.171875 -15.96875 C 20.035156 -18.257812 19.414062 -20.035156 18.3125 -21.296875 C 17.207031 -22.554688 15.707031 -23.1875 13.8125 -23.1875 Z M 13.8125 -23.1875 "/></g></g></g><g fill="#f0ffff" fill-opacity="1"><g transform="translate(243.493993, 203.624987)"><g><path d="M 18.796875 -7 C 18.796875 -8.226562 18.335938 -9.175781 17.421875 -9.84375 C 16.503906 -10.519531 14.898438 -11.101562 12.609375 -11.59375 C 10.328125 -12.082031 8.515625 -12.664062 7.171875 -13.34375 C 5.828125 -14.03125 4.832031 -14.847656 4.1875 -15.796875 C 3.539062 -16.742188 3.21875 -17.867188 3.21875 -19.171875 C 3.21875 -21.328125 4.132812 -23.15625 5.96875 -24.65625 C 7.800781 -26.15625 10.140625 -26.90625 12.984375 -26.90625 C 15.984375 -26.90625 18.414062 -26.128906 20.28125 -24.578125 C 22.144531 -23.035156 23.078125 -21.0625 23.078125 -18.65625 L 18.53125 -18.65625 C 18.53125 -19.894531 18.003906 -20.957031 16.953125 -21.84375 C 15.898438 -22.738281 14.578125 -23.1875 12.984375 -23.1875 C 11.335938 -23.1875 10.050781 -22.828125 9.125 -22.109375 C 8.195312 -21.398438 7.734375 -20.46875 7.734375 -19.3125 C 7.734375 -18.21875 8.164062 -17.394531 9.03125 -16.84375 C 9.894531 -16.289062 11.453125 -15.757812 13.703125 -15.25 C 15.960938 -14.75 17.789062 -14.148438 19.1875 -13.453125 C 20.59375 -12.753906 21.628906 -11.910156 22.296875 -10.921875 C 22.972656 -9.941406 23.3125 -8.742188 23.3125 -7.328125 C 23.3125 -4.960938 22.367188 -3.066406 20.484375 -1.640625 C 18.597656 -0.222656 16.148438 0.484375 13.140625 0.484375 C 11.023438 0.484375 9.148438 0.109375 7.515625 -0.640625 C 5.890625 -1.390625 4.613281 -2.429688 3.6875 -3.765625 C 2.769531 -5.109375 2.3125 -6.5625 2.3125 -8.125 L 6.84375 -8.125 C 6.914062 -6.613281 7.519531 -5.414062 8.65625 -4.53125 C 9.789062 -3.644531 11.285156 -3.203125 13.140625 -3.203125 C 14.847656 -3.203125 16.21875 -3.546875 17.25 -4.234375 C 18.28125 -4.929688 18.796875 -5.851562 18.796875 -7 Z M 18.796875 -7 "/></g></g></g><g fill="#f0ffff" fill-opacity="1"><g transform="translate(269.271213, 203.624987)"><g><path d="M 19.734375 -2.609375 C 17.972656 -0.546875 15.390625 0.484375 11.984375 0.484375 C 9.171875 0.484375 7.023438 -0.332031 5.546875 -1.96875 C 4.078125 -3.601562 3.335938 -6.023438 3.328125 -9.234375 L 3.328125 -26.421875 L 7.84375 -26.421875 L 7.84375 -9.34375 C 7.84375 -5.34375 9.46875 -3.34375 12.71875 -3.34375 C 16.164062 -3.34375 18.460938 -4.628906 19.609375 -7.203125 L 19.609375 -26.421875 L 24.125 -26.421875 L 24.125 0 L 19.828125 0 Z M 19.734375 -2.609375 "/></g></g></g><g fill="#f0ffff" fill-opacity="1"><g transform="translate(296.830381, 203.624987)"><g><path d="M 7.671875 -26.421875 L 7.78125 -23.484375 C 9.71875 -25.765625 12.332031 -26.90625 15.625 -26.90625 C 19.320312 -26.90625 21.835938 -25.488281 23.171875 -22.65625 C 24.046875 -23.925781 25.1875 -24.953125 26.59375 -25.734375 C 28.007812 -26.515625 29.675781 -26.90625 31.59375 -26.90625 C 37.382812 -26.90625 40.332031 -23.835938 40.4375 -17.703125 L 40.4375 0 L 35.90625 0 L 35.90625 -17.4375 C 35.90625 -19.320312 35.472656 -20.734375 34.609375 -21.671875 C 33.753906 -22.609375 32.3125 -23.078125 30.28125 -23.078125 C 28.601562 -23.078125 27.207031 -22.570312 26.09375 -21.5625 C 24.988281 -20.5625 24.347656 -19.21875 24.171875 -17.53125 L 24.171875 0 L 19.625 0 L 19.625 -17.3125 C 19.625 -21.15625 17.742188 -23.078125 13.984375 -23.078125 C 11.023438 -23.078125 9 -21.8125 7.90625 -19.28125 L 7.90625 0 L 3.390625 0 L 3.390625 -26.421875 Z M 7.671875 -26.421875 "/></g></g></g><g fill="#f0ffff" fill-opacity="1"><g transform="translate(340.646785, 203.624987)"><g><path d="M 14.375 0.484375 C 10.800781 0.484375 7.890625 -0.6875 5.640625 -3.03125 C 3.390625 -5.382812 2.265625 -8.53125 2.265625 -12.46875 L 2.265625 -13.3125 C 2.265625 -15.925781 2.765625 -18.257812 3.765625 -20.3125 C 4.773438 -22.375 6.175781 -23.988281 7.96875 -25.15625 C 9.769531 -26.320312 11.71875 -26.90625 13.8125 -26.90625 C 17.25 -26.90625 19.921875 -25.773438 21.828125 -23.515625 C 23.734375 -21.253906 24.6875 -18.015625 24.6875 -13.796875 L 24.6875 -11.921875 L 6.78125 -11.921875 C 6.851562 -9.316406 7.613281 -7.210938 9.0625 -5.609375 C 10.519531 -4.003906 12.375 -3.203125 14.625 -3.203125 C 16.21875 -3.203125 17.566406 -3.523438 18.671875 -4.171875 C 19.785156 -4.828125 20.753906 -5.691406 21.578125 -6.765625 L 24.34375 -4.609375 C 22.125 -1.210938 18.800781 0.484375 14.375 0.484375 Z M 13.8125 -23.1875 C 11.988281 -23.1875 10.457031 -22.523438 9.21875 -21.203125 C 7.988281 -19.878906 7.226562 -18.019531 6.9375 -15.625 L 20.171875 -15.625 L 20.171875 -15.96875 C 20.035156 -18.257812 19.414062 -20.035156 18.3125 -21.296875 C 17.207031 -22.554688 15.707031 -23.1875 13.8125 -23.1875 Z M 13.8125 -23.1875 "/></g></g></g></svg>