<svg xmlns="http://www.w3.org/2000/svg" xmlns:xlink="http://www.w3.org/1999/xlink" width="500" zoomAndPan="magnify" viewBox="0 0 375 149.999998" height="200" preserveAspectRatio="xMidYMid meet" version="1.0"><defs><g/><clipPath id="e6e2616d53"><path d="M 3.078125 21.21875 L 110.328125 21.21875 L 110.328125 128.46875 L 3.078125 128.46875 Z M 3.078125 21.21875 " clip-rule="nonzero"/></clipPath><clipPath id="4b33ff5d8b"><path d="M 56.859375 121.929688 C 30.941406 121.929688 9.929688 100.917969 9.929688 75 C 9.929688 49.082031 30.941406 28.070312 56.859375 28.070312 C 82.777344 28.070312 103.789062 49.082031 103.789062 75 C 103.789062 100.917969 82.777344 121.929688 56.859375 121.929688 Z M 56.859375 21.21875 C 27.15625 21.21875 3.078125 45.296875 3.078125 75 C 3.078125 104.703125 27.15625 128.78125 56.859375 128.78125 C 86.5625 128.78125 110.640625 104.703125 110.640625 75 C 110.640625 45.296875 86.5625 21.21875 56.859375 21.21875 Z M 56.859375 21.21875 " clip-rule="nonzero"/></clipPath><linearGradient x1="516.476363" gradientTransform="matrix(0.175944, 0, 0, 0.175944, 3.079279, 21.219286)" y1="664.290449" x2="93.632743" gradientUnits="userSpaceOnUse" y2="-55.040095" id="bc099cce68"><stop stop-opacity="1" stop-color="rgb(33.560181%, 85.108948%, 90.19928%)" offset="0"/><stop stop-opacity="1" stop-color="rgb(33.439636%, 84.962463%, 90.19928%)" offset="0.015625"/><stop stop-opacity="1" stop-color="rgb(33.200073%, 84.671021%, 90.19928%)" offset="0.03125"/><stop stop-opacity="1" stop-color="rgb(32.96051%, 84.378052%, 90.19928%)" offset="0.046875"/><stop stop-opacity="1" stop-color="rgb(32.720947%, 84.086609%, 90.19928%)" offset="0.0625"/><stop stop-opacity="1" stop-color="rgb(32.479858%, 83.795166%, 90.19928%)" offset="0.078125"/><stop stop-opacity="1" stop-color="rgb(32.240295%, 83.503723%, 90.19928%)" offset="0.09375"/><stop stop-opacity="1" stop-color="rgb(32.000732%, 83.21228%, 90.19928%)" offset="0.109375"/><stop stop-opacity="1" stop-color="rgb(31.761169%, 82.920837%, 90.19928%)" offset="0.125"/><stop stop-opacity="1" stop-color="rgb(31.521606%, 82.629395%, 90.19928%)" offset="0.140625"/><stop stop-opacity="1" stop-color="rgb(31.282043%, 82.337952%, 90.19928%)" offset="0.15625"/><stop stop-opacity="1" stop-color="rgb(31.04248%, 82.046509%, 90.19928%)" offset="0.171875"/><stop stop-opacity="1" stop-color="rgb(30.802917%, 81.755066%, 90.19928%)" offset="0.1875"/><stop stop-opacity="1" stop-color="rgb(30.563354%, 81.463623%, 90.19928%)" offset="0.203125"/><stop stop-opacity="1" stop-color="rgb(30.323792%, 81.170654%, 90.19928%)" offset="0.21875"/><stop stop-opacity="1" stop-color="rgb(30.084229%, 80.879211%, 90.19928%)" offset="0.234375"/><stop stop-opacity="1" stop-color="rgb(29.844666%, 80.587769%, 90.19928%)" offset="0.25"/><stop stop-opacity="1" stop-color="rgb(29.605103%, 80.296326%, 90.19928%)" offset="0.265625"/><stop stop-opacity="1" stop-color="rgb(29.36554%, 80.004883%, 90.19928%)" offset="0.28125"/><stop stop-opacity="1" stop-color="rgb(29.125977%, 79.71344%, 90.19928%)" offset="0.296875"/><stop stop-opacity="1" stop-color="rgb(28.886414%, 79.421997%, 90.19928%)" offset="0.3125"/><stop stop-opacity="1" stop-color="rgb(28.646851%, 79.130554%, 90.19928%)" offset="0.328125"/><stop stop-opacity="1" stop-color="rgb(28.407288%, 78.839111%, 90.19928%)" offset="0.34375"/><stop stop-opacity="1" stop-color="rgb(28.167725%, 78.547668%, 90.19928%)" offset="0.359375"/><stop stop-opacity="1" stop-color="rgb(27.928162%, 78.256226%, 90.19928%)" offset="0.370209"/><stop stop-opacity="1" stop-color="rgb(27.809143%, 78.109741%, 90.19928%)" offset="0.375"/><stop stop-opacity="1" stop-color="rgb(27.688599%, 77.963257%, 90.19928%)" offset="0.390625"/><stop stop-opacity="1" stop-color="rgb(27.449036%, 77.671814%, 90.19928%)" offset="0.40625"/><stop stop-opacity="1" stop-color="rgb(27.209473%, 77.380371%, 90.19928%)" offset="0.421875"/><stop stop-opacity="1" stop-color="rgb(26.96991%, 77.088928%, 90.19928%)" offset="0.4375"/><stop stop-opacity="1" stop-color="rgb(26.730347%, 76.797485%, 90.19928%)" offset="0.453125"/><stop stop-opacity="1" stop-color="rgb(26.490784%, 76.506042%, 90.19928%)" offset="0.46875"/><stop stop-opacity="1" stop-color="rgb(26.251221%, 76.2146%, 90.19928%)" offset="0.484375"/><stop stop-opacity="1" stop-color="rgb(26.011658%, 75.923157%, 90.19928%)" offset="0.5"/><stop stop-opacity="1" stop-color="rgb(25.772095%, 75.631714%, 90.19928%)" offset="0.515625"/><stop stop-opacity="1" stop-color="rgb(25.532532%, 75.340271%, 90.19928%)" offset="0.53125"/><stop stop-opacity="1" stop-color="rgb(25.292969%, 75.047302%, 90.19928%)" offset="0.546875"/><stop stop-opacity="1" stop-color="rgb(25.053406%, 74.755859%, 90.19928%)" offset="0.5625"/><stop stop-opacity="1" stop-color="rgb(24.813843%, 74.464417%, 90.19928%)" offset="0.578125"/><stop stop-opacity="1" stop-color="rgb(24.57428%, 74.172974%, 90.19928%)" offset="0.59375"/><stop stop-opacity="1" stop-color="rgb(24.334717%, 73.881531%, 90.19928%)" offset="0.609375"/><stop stop-opacity="1" stop-color="rgb(24.095154%, 73.590088%, 90.19928%)" offset="0.625"/><stop stop-opacity="1" stop-color="rgb(23.855591%, 73.298645%, 90.19928%)" offset="0.629791"/><stop stop-opacity="1" stop-color="rgb(23.736572%, 73.153687%, 90.19928%)" offset="0.640625"/><stop stop-opacity="1" stop-color="rgb(23.616028%, 73.007202%, 90.19928%)" offset="0.65625"/><stop stop-opacity="1" stop-color="rgb(23.376465%, 72.715759%, 90.19928%)" offset="0.671875"/><stop stop-opacity="1" stop-color="rgb(23.136902%, 72.424316%, 90.19928%)" offset="0.6875"/><stop stop-opacity="1" stop-color="rgb(22.897339%, 72.132874%, 90.19928%)" offset="0.703125"/><stop stop-opacity="1" stop-color="rgb(22.657776%, 71.839905%, 90.19928%)" offset="0.71875"/><stop stop-opacity="1" stop-color="rgb(22.416687%, 71.548462%, 90.19928%)" offset="0.734375"/><stop stop-opacity="1" stop-color="rgb(22.177124%, 71.257019%, 90.19928%)" offset="0.75"/><stop stop-opacity="1" stop-color="rgb(21.937561%, 70.965576%, 90.19928%)" offset="0.765625"/><stop stop-opacity="1" stop-color="rgb(21.697998%, 70.674133%, 90.19928%)" offset="0.78125"/><stop stop-opacity="1" stop-color="rgb(21.458435%, 70.38269%, 90.19928%)" offset="0.796875"/><stop stop-opacity="1" stop-color="rgb(21.218872%, 70.091248%, 90.19928%)" offset="0.8125"/><stop stop-opacity="1" stop-color="rgb(20.979309%, 69.799805%, 90.19928%)" offset="0.828125"/><stop stop-opacity="1" stop-color="rgb(20.739746%, 69.508362%, 90.19928%)" offset="0.84375"/><stop stop-opacity="1" stop-color="rgb(20.500183%, 69.216919%, 90.19928%)" offset="0.859375"/><stop stop-opacity="1" stop-color="rgb(20.26062%, 68.92395%, 90.19928%)" offset="0.875"/><stop stop-opacity="1" stop-color="rgb(20.021057%, 68.632507%, 90.19928%)" offset="0.890625"/><stop stop-opacity="1" stop-color="rgb(19.781494%, 68.341064%, 90.19928%)" offset="0.90625"/><stop stop-opacity="1" stop-color="rgb(19.541931%, 68.049622%, 90.19928%)" offset="0.921875"/><stop stop-opacity="1" stop-color="rgb(19.302368%, 67.758179%, 90.19928%)" offset="0.9375"/><stop stop-opacity="1" stop-color="rgb(19.062805%, 67.466736%, 90.19928%)" offset="0.953125"/><stop stop-opacity="1" stop-color="rgb(18.823242%, 67.175293%, 90.19928%)" offset="0.96875"/><stop stop-opacity="1" stop-color="rgb(18.583679%, 66.88385%, 90.19928%)" offset="0.984375"/><stop stop-opacity="1" stop-color="rgb(18.344116%, 66.592407%, 90.19928%)" offset="1"/></linearGradient><clipPath id="cbefe09232"><path d="M 19.480469 37.621094 L 94.480469 37.621094 L 94.480469 112.621094 L 19.480469 112.621094 Z M 19.480469 37.621094 " clip-rule="nonzero"/></clipPath><clipPath id="73b11d4e48"><path d="M 56.859375 107.617188 C 38.84375 107.617188 24.242188 93.015625 24.242188 75 C 24.242188 56.984375 38.84375 42.382812 56.859375 42.382812 C 74.875 42.382812 89.476562 56.984375 89.476562 75 C 89.476562 93.015625 74.875 107.617188 56.859375 107.617188 Z M 56.859375 37.621094 C 36.214844 37.621094 19.480469 54.355469 19.480469 75 C 19.480469 95.644531 36.214844 112.378906 56.859375 112.378906 C 77.503906 112.378906 94.238281 95.644531 94.238281 75 C 94.238281 54.355469 77.503906 37.621094 56.859375 37.621094 Z M 56.859375 37.621094 " clip-rule="nonzero"/></clipPath><linearGradient x1="517.701538" gradientTransform="matrix(0.122287, 0, 0, 0.122287, 19.480653, 37.620652)" y1="666.374684" x2="93.632763" gradientUnits="userSpaceOnUse" y2="-55.040062" id="0f9c2a0950"><stop stop-opacity="1" stop-color="rgb(33.604431%, 85.162354%, 90.19928%)" offset="0"/><stop stop-opacity="1" stop-color="rgb(33.483887%, 85.015869%, 90.19928%)" offset="0.015625"/><stop stop-opacity="1" stop-color="rgb(33.242798%, 84.7229%, 90.19928%)" offset="0.03125"/><stop stop-opacity="1" stop-color="rgb(33.003235%, 84.431458%, 90.19928%)" offset="0.046875"/><stop stop-opacity="1" stop-color="rgb(32.762146%, 84.138489%, 90.19928%)" offset="0.0625"/><stop stop-opacity="1" stop-color="rgb(32.522583%, 83.847046%, 90.19928%)" offset="0.078125"/><stop stop-opacity="1" stop-color="rgb(32.281494%, 83.554077%, 90.19928%)" offset="0.09375"/><stop stop-opacity="1" stop-color="rgb(32.041931%, 83.261108%, 90.19928%)" offset="0.109375"/><stop stop-opacity="1" stop-color="rgb(31.800842%, 82.969666%, 90.19928%)" offset="0.125"/><stop stop-opacity="1" stop-color="rgb(31.561279%, 82.676697%, 90.19928%)" offset="0.140625"/><stop stop-opacity="1" stop-color="rgb(31.32019%, 82.383728%, 90.19928%)" offset="0.15625"/><stop stop-opacity="1" stop-color="rgb(31.080627%, 82.092285%, 90.19928%)" offset="0.171875"/><stop stop-opacity="1" stop-color="rgb(30.839539%, 81.799316%, 90.19928%)" offset="0.1875"/><stop stop-opacity="1" stop-color="rgb(30.599976%, 81.506348%, 90.19928%)" offset="0.203125"/><stop stop-opacity="1" stop-color="rgb(30.358887%, 81.214905%, 90.19928%)" offset="0.21875"/><stop stop-opacity="1" stop-color="rgb(30.119324%, 80.921936%, 90.19928%)" offset="0.234375"/><stop stop-opacity="1" stop-color="rgb(29.879761%, 80.628967%, 90.19928%)" offset="0.25"/><stop stop-opacity="1" stop-color="rgb(29.638672%, 80.337524%, 90.19928%)" offset="0.265625"/><stop stop-opacity="1" stop-color="rgb(29.399109%, 80.044556%, 90.19928%)" offset="0.28125"/><stop stop-opacity="1" stop-color="rgb(29.15802%, 79.751587%, 90.19928%)" offset="0.296875"/><stop stop-opacity="1" stop-color="rgb(28.918457%, 79.460144%, 90.19928%)" offset="0.3125"/><stop stop-opacity="1" stop-color="rgb(28.677368%, 79.167175%, 90.19928%)" offset="0.328125"/><stop stop-opacity="1" stop-color="rgb(28.437805%, 78.875732%, 90.19928%)" offset="0.34375"/><stop stop-opacity="1" stop-color="rgb(28.196716%, 78.582764%, 90.19928%)" offset="0.359375"/><stop stop-opacity="1" stop-color="rgb(27.957153%, 78.289795%, 90.19928%)" offset="0.370209"/><stop stop-opacity="1" stop-color="rgb(27.836609%, 78.144836%, 90.19928%)" offset="0.375"/><stop stop-opacity="1" stop-color="rgb(27.716064%, 77.998352%, 90.19928%)" offset="0.390625"/><stop stop-opacity="1" stop-color="rgb(27.476501%, 77.705383%, 90.19928%)" offset="0.40625"/><stop stop-opacity="1" stop-color="rgb(27.235413%, 77.412415%, 90.19928%)" offset="0.421875"/><stop stop-opacity="1" stop-color="rgb(26.99585%, 77.120972%, 90.19928%)" offset="0.4375"/><stop stop-opacity="1" stop-color="rgb(26.754761%, 76.828003%, 90.19928%)" offset="0.453125"/><stop stop-opacity="1" stop-color="rgb(26.515198%, 76.535034%, 90.19928%)" offset="0.46875"/><stop stop-opacity="1" stop-color="rgb(26.274109%, 76.243591%, 90.19928%)" offset="0.484375"/><stop stop-opacity="1" stop-color="rgb(26.034546%, 75.950623%, 90.19928%)" offset="0.5"/><stop stop-opacity="1" stop-color="rgb(25.793457%, 75.657654%, 90.19928%)" offset="0.515625"/><stop stop-opacity="1" stop-color="rgb(25.553894%, 75.366211%, 90.19928%)" offset="0.53125"/><stop stop-opacity="1" stop-color="rgb(25.312805%, 75.073242%, 90.19928%)" offset="0.546875"/><stop stop-opacity="1" stop-color="rgb(25.073242%, 74.780273%, 90.19928%)" offset="0.5625"/><stop stop-opacity="1" stop-color="rgb(24.832153%, 74.488831%, 90.19928%)" offset="0.578125"/><stop stop-opacity="1" stop-color="rgb(24.59259%, 74.195862%, 90.19928%)" offset="0.59375"/><stop stop-opacity="1" stop-color="rgb(24.353027%, 73.902893%, 90.19928%)" offset="0.609375"/><stop stop-opacity="1" stop-color="rgb(24.111938%, 73.61145%, 90.19928%)" offset="0.625"/><stop stop-opacity="1" stop-color="rgb(23.872375%, 73.318481%, 90.19928%)" offset="0.629791"/><stop stop-opacity="1" stop-color="rgb(23.751831%, 73.173523%, 90.19928%)" offset="0.640625"/><stop stop-opacity="1" stop-color="rgb(23.631287%, 73.027039%, 90.19928%)" offset="0.65625"/><stop stop-opacity="1" stop-color="rgb(23.391724%, 72.73407%, 90.19928%)" offset="0.671875"/><stop stop-opacity="1" stop-color="rgb(23.150635%, 72.441101%, 90.19928%)" offset="0.6875"/><stop stop-opacity="1" stop-color="rgb(22.911072%, 72.149658%, 90.19928%)" offset="0.703125"/><stop stop-opacity="1" stop-color="rgb(22.669983%, 71.856689%, 90.19928%)" offset="0.71875"/><stop stop-opacity="1" stop-color="rgb(22.43042%, 71.563721%, 90.19928%)" offset="0.734375"/><stop stop-opacity="1" stop-color="rgb(22.189331%, 71.272278%, 90.19928%)" offset="0.75"/><stop stop-opacity="1" stop-color="rgb(21.949768%, 70.979309%, 90.19928%)" offset="0.765625"/><stop stop-opacity="1" stop-color="rgb(21.708679%, 70.68634%, 90.19928%)" offset="0.78125"/><stop stop-opacity="1" stop-color="rgb(21.469116%, 70.394897%, 90.19928%)" offset="0.796875"/><stop stop-opacity="1" stop-color="rgb(21.228027%, 70.101929%, 90.19928%)" offset="0.8125"/><stop stop-opacity="1" stop-color="rgb(20.988464%, 69.80896%, 90.19928%)" offset="0.828125"/><stop stop-opacity="1" stop-color="rgb(20.747375%, 69.517517%, 90.19928%)" offset="0.84375"/><stop stop-opacity="1" stop-color="rgb(20.507812%, 69.224548%, 90.19928%)" offset="0.859375"/><stop stop-opacity="1" stop-color="rgb(20.266724%, 68.93158%, 90.19928%)" offset="0.875"/><stop stop-opacity="1" stop-color="rgb(20.027161%, 68.640137%, 90.19928%)" offset="0.890625"/><stop stop-opacity="1" stop-color="rgb(19.786072%, 68.347168%, 90.19928%)" offset="0.90625"/><stop stop-opacity="1" stop-color="rgb(19.546509%, 68.055725%, 90.19928%)" offset="0.921875"/><stop stop-opacity="1" stop-color="rgb(19.30542%, 67.762756%, 90.19928%)" offset="0.9375"/><stop stop-opacity="1" stop-color="rgb(19.065857%, 67.469788%, 90.19928%)" offset="0.953125"/><stop stop-opacity="1" stop-color="rgb(18.826294%, 67.178345%, 90.19928%)" offset="0.96875"/><stop stop-opacity="1" stop-color="rgb(18.585205%, 66.885376%, 90.19928%)" offset="0.984375"/><stop stop-opacity="1" stop-color="rgb(18.345642%, 66.592407%, 90.19928%)" offset="1"/></linearGradient></defs><g clip-path="url(#e6e2616d53)"><g clip-path="url(#4b33ff5d8b)"><path fill="url(#bc099cce68)" d="M 3.078125 21.21875 L 3.078125 128.46875 L 110.328125 128.46875 L 110.328125 21.21875 Z M 3.078125 21.21875 " fill-rule="nonzero"/></g></g><g clip-path="url(#cbefe09232)"><g clip-path="url(#73b11d4e48)"><path fill="url(#0f9c2a0950)" d="M 19.480469 37.621094 L 19.480469 112.378906 L 94.238281 112.378906 L 94.238281 37.621094 Z M 19.480469 37.621094 " fill-rule="nonzero"/></g></g><g fill="#f0ffff" fill-opacity="1"><g transform="translate(114.50032, 91.704921)"><g><path d="M 10.546875 -36.828125 L 22.578125 -6.78125 L 34.625 -36.828125 L 40.921875 -36.828125 L 40.921875 0 L 36.0625 0 L 36.0625 -14.34375 L 36.515625 -29.8125 L 24.4375 0 L 20.71875 0 L 8.65625 -29.75 L 9.125 -14.34375 L 9.125 0 L 4.28125 0 L 4.28125 -36.828125 Z M 10.546875 -36.828125 "/></g></g></g><g fill="#f0ffff" fill-opacity="1"><g transform="translate(159.715521, 91.704921)"><g><path d="M 12.5 -6.859375 L 18.875 -27.359375 L 23.875 -27.359375 L 12.875 4.21875 C 11.164062 8.769531 8.457031 11.046875 4.75 11.046875 L 3.875 10.96875 L 2.125 10.640625 L 2.125 6.859375 L 3.390625 6.953125 C 4.972656 6.953125 6.207031 6.628906 7.09375 5.984375 C 7.976562 5.347656 8.707031 4.179688 9.28125 2.484375 L 10.3125 -0.296875 L 0.5625 -27.359375 L 5.671875 -27.359375 Z M 12.5 -6.859375 "/></g></g></g><g fill="#f0ffff" fill-opacity="1"><g transform="translate(184.219732, 91.704921)"><g><path d="M 17.78125 -14.890625 L 9.125 -14.890625 L 9.125 0 L 4.25 0 L 4.25 -36.828125 L 16.4375 -36.828125 C 20.582031 -36.828125 23.769531 -35.878906 26 -33.984375 C 28.238281 -32.097656 29.359375 -29.351562 29.359375 -25.75 C 29.359375 -23.457031 28.738281 -21.457031 27.5 -19.75 C 26.257812 -18.050781 24.535156 -16.78125 22.328125 -15.9375 L 30.984375 -0.296875 L 30.984375 0 L 25.765625 0 Z M 9.125 -18.875 L 16.59375 -18.875 C 19 -18.875 20.914062 -19.492188 22.34375 -20.734375 C 23.769531 -21.984375 24.484375 -23.65625 24.484375 -25.75 C 24.484375 -28.019531 23.800781 -29.757812 22.4375 -30.96875 C 21.082031 -32.1875 19.125 -32.804688 16.5625 -32.828125 L 9.125 -32.828125 Z M 9.125 -18.875 "/></g></g></g><g fill="#f0ffff" fill-opacity="1"><g transform="translate(216.108081, 91.704921)"><g><path d="M 14.890625 0.5 C 11.179688 0.5 8.164062 -0.710938 5.84375 -3.140625 C 3.519531 -5.578125 2.359375 -8.835938 2.359375 -12.921875 L 2.359375 -13.78125 C 2.359375 -16.5 2.875 -18.921875 3.90625 -21.046875 C 4.945312 -23.179688 6.394531 -24.851562 8.25 -26.0625 C 10.113281 -27.269531 12.132812 -27.875 14.3125 -27.875 C 17.875 -27.875 20.640625 -26.703125 22.609375 -24.359375 C 24.578125 -22.015625 25.5625 -18.660156 25.5625 -14.296875 L 25.5625 -12.34375 L 7.03125 -12.34375 C 7.09375 -9.644531 7.878906 -7.460938 9.390625 -5.796875 C 10.898438 -4.140625 12.820312 -3.3125 15.15625 -3.3125 C 16.800781 -3.3125 18.195312 -3.648438 19.34375 -4.328125 C 20.488281 -5.003906 21.492188 -5.894531 22.359375 -7 L 25.21875 -4.78125 C 22.925781 -1.257812 19.484375 0.5 14.890625 0.5 Z M 14.3125 -24.03125 C 12.425781 -24.03125 10.84375 -23.34375 9.5625 -21.96875 C 8.28125 -20.59375 7.488281 -18.664062 7.1875 -16.1875 L 20.890625 -16.1875 L 20.890625 -16.546875 C 20.753906 -18.921875 20.113281 -20.757812 18.96875 -22.0625 C 17.820312 -23.375 16.269531 -24.03125 14.3125 -24.03125 Z M 14.3125 -24.03125 "/></g></g></g><g fill="#f0ffff" fill-opacity="1"><g transform="translate(243.545716, 91.704921)"><g><path d="M 19.46875 -7.265625 C 19.46875 -8.523438 18.988281 -9.503906 18.03125 -10.203125 C 17.082031 -10.898438 15.425781 -11.5 13.0625 -12 C 10.695312 -12.507812 8.816406 -13.117188 7.421875 -13.828125 C 6.035156 -14.535156 5.007812 -15.378906 4.34375 -16.359375 C 3.675781 -17.335938 3.34375 -18.503906 3.34375 -19.859375 C 3.34375 -22.097656 4.289062 -23.992188 6.1875 -25.546875 C 8.082031 -27.097656 10.503906 -27.875 13.453125 -27.875 C 16.554688 -27.875 19.070312 -27.070312 21 -25.46875 C 22.9375 -23.863281 23.90625 -21.816406 23.90625 -19.328125 L 19.203125 -19.328125 C 19.203125 -20.609375 18.65625 -21.710938 17.5625 -22.640625 C 16.476562 -23.566406 15.109375 -24.03125 13.453125 -24.03125 C 11.753906 -24.03125 10.421875 -23.65625 9.453125 -22.90625 C 8.492188 -22.164062 8.015625 -21.195312 8.015625 -20 C 8.015625 -18.875 8.460938 -18.023438 9.359375 -17.453125 C 10.253906 -16.878906 11.867188 -16.328125 14.203125 -15.796875 C 16.535156 -15.273438 18.425781 -14.648438 19.875 -13.921875 C 21.320312 -13.203125 22.394531 -12.332031 23.09375 -11.3125 C 23.800781 -10.289062 24.15625 -9.050781 24.15625 -7.59375 C 24.15625 -5.144531 23.175781 -3.179688 21.21875 -1.703125 C 19.257812 -0.234375 16.722656 0.5 13.609375 0.5 C 11.410156 0.5 9.46875 0.113281 7.78125 -0.65625 C 6.101562 -1.4375 4.785156 -2.519531 3.828125 -3.90625 C 2.878906 -5.300781 2.40625 -6.804688 2.40625 -8.421875 L 7.078125 -8.421875 C 7.160156 -6.847656 7.785156 -5.601562 8.953125 -4.6875 C 10.128906 -3.769531 11.679688 -3.3125 13.609375 -3.3125 C 15.378906 -3.3125 16.796875 -3.671875 17.859375 -4.390625 C 18.929688 -5.109375 19.46875 -6.066406 19.46875 -7.265625 Z M 19.46875 -7.265625 "/></g></g></g><g fill="#f0ffff" fill-opacity="1"><g transform="translate(270.249996, 91.704921)"><g><path d="M 20.4375 -2.703125 C 18.613281 -0.566406 15.941406 0.5 12.421875 0.5 C 9.503906 0.5 7.28125 -0.34375 5.75 -2.03125 C 4.226562 -3.726562 3.457031 -6.238281 3.4375 -9.5625 L 3.4375 -27.359375 L 8.125 -27.359375 L 8.125 -9.6875 C 8.125 -5.539062 9.804688 -3.46875 13.171875 -3.46875 C 16.742188 -3.46875 19.125 -4.800781 20.3125 -7.46875 L 20.3125 -27.359375 L 24.984375 -27.359375 L 24.984375 0 L 20.53125 0 Z M 20.4375 -2.703125 "/></g></g></g><g fill="#f0ffff" fill-opacity="1"><g transform="translate(298.80031, 91.704921)"><g><path d="M 7.9375 -27.359375 L 8.0625 -24.328125 C 10.070312 -26.691406 12.78125 -27.875 16.1875 -27.875 C 20.007812 -27.875 22.613281 -26.40625 24 -23.46875 C 24.914062 -24.78125 26.101562 -25.84375 27.5625 -26.65625 C 29.019531 -27.46875 30.742188 -27.875 32.734375 -27.875 C 38.734375 -27.875 41.78125 -24.695312 41.875 -18.34375 L 41.875 0 L 37.203125 0 L 37.203125 -18.0625 C 37.203125 -20.007812 36.753906 -21.46875 35.859375 -22.4375 C 34.960938 -23.414062 33.460938 -23.90625 31.359375 -23.90625 C 29.617188 -23.90625 28.175781 -23.382812 27.03125 -22.34375 C 25.882812 -21.3125 25.21875 -19.914062 25.03125 -18.15625 L 25.03125 0 L 20.328125 0 L 20.328125 -17.9375 C 20.328125 -21.914062 18.378906 -23.90625 14.484375 -23.90625 C 11.421875 -23.90625 9.320312 -22.597656 8.1875 -19.984375 L 8.1875 0 L 3.515625 0 L 3.515625 -27.359375 Z M 7.9375 -27.359375 "/></g></g></g><g fill="#f0ffff" fill-opacity="1"><g transform="translate(344.19254, 91.704921)"><g><path d="M 14.890625 0.5 C 11.179688 0.5 8.164062 -0.710938 5.84375 -3.140625 C 3.519531 -5.578125 2.359375 -8.835938 2.359375 -12.921875 L 2.359375 -13.78125 C 2.359375 -16.5 2.875 -18.921875 3.90625 -21.046875 C 4.945312 -23.179688 6.394531 -24.851562 8.25 -26.0625 C 10.113281 -27.269531 12.132812 -27.875 14.3125 -27.875 C 17.875 -27.875 20.640625 -26.703125 22.609375 -24.359375 C 24.578125 -22.015625 25.5625 -18.660156 25.5625 -14.296875 L 25.5625 -12.34375 L 7.03125 -12.34375 C 7.09375 -9.644531 7.878906 -7.460938 9.390625 -5.796875 C 10.898438 -4.140625 12.820312 -3.3125 15.15625 -3.3125 C 16.800781 -3.3125 18.195312 -3.648438 19.34375 -4.328125 C 20.488281 -5.003906 21.492188 -5.894531 22.359375 -7 L 25.21875 -4.78125 C 22.925781 -1.257812 19.484375 0.5 14.890625 0.5 Z M 14.3125 -24.03125 C 12.425781 -24.03125 10.84375 -23.34375 9.5625 -21.96875 C 8.28125 -20.59375 7.488281 -18.664062 7.1875 -16.1875 L 20.890625 -16.1875 L 20.890625 -16.546875 C 20.753906 -18.921875 20.113281 -20.757812 18.96875 -22.0625 C 17.820312 -23.375 16.269531 -24.03125 14.3125 -24.03125 Z M 14.3125 -24.03125 "/></g></g></g></svg>